<svg id="badge-android-footer" class="BadgeAndroid" width="137" height="42" viewBox="0 0 137 42" aria-labelledby="badge-android-footer-title" xmlns="http://www.w3.org/2000/svg">
							<title id="badge-android-footer-title">Get it on Google Play</title>
							<defs>
								<linearGradient id="a" x1="90.766%" x2="-38.329%" y1="4.839%" y2="71.968%">
									<stop offset="0%" stop-color="#00A0FF"></stop>
									<stop offset=".657%" stop-color="#00A1FF"></stop>
									<stop offset="26.01%" stop-color="#00BEFF"></stop>
									<stop offset="51.22%" stop-color="#00D2FF"></stop>
									<stop offset="76.04%" stop-color="#00DFFF"></stop>
									<stop offset="100%" stop-color="#00E3FF"></stop>
								</linearGradient>
								<linearGradient id="b" x1="107.727%" x2="-130.666%" y1="49.428%" y2="49.428%">
									<stop offset="0%" stop-color="#FFE000"></stop>
									<stop offset="40.87%" stop-color="#FFBD00"></stop>
									<stop offset="77.54%" stop-color="#FFA500"></stop>
									<stop offset="100%" stop-color="#FF9C00"></stop>
								</linearGradient>
								<linearGradient id="c" x1="86.389%" x2="-49.889%" y1="17.815%" y2="194.393%">
									<stop offset="0%" stop-color="#FF3A44"></stop>
									<stop offset="100%" stop-color="#C31162"></stop>
								</linearGradient>
								<linearGradient id="d" x1="-18.58%" x2="42.274%" y1="-54.527%" y2="24.69%">
									<stop offset="0%" stop-color="#32A071"></stop>
									<stop offset="6.85%" stop-color="#2DA771"></stop>
									<stop offset="47.62%" stop-color="#15CF74"></stop>
									<stop offset="80.09%" stop-color="#06E775"></stop>
									<stop offset="100%" stop-color="#00F076"></stop>
								</linearGradient>
							</defs>
							<g fill="none">
								<path fill="#000" d="M131 41H6c-2.8 0-5-2.2-5-5V6c0-2.7 2.2-5 5-5h125c2.8 0 5 2.2 5 5v30c0 2.7-2.2 5-5 5z"></path>
								<path fill="#A6A6A6" d="M131 1.8c2.3 0 4.2 1.9 4.2 4.2v30c0 2.3-1.9 4.2-4.2 4.2H6c-2.3 0-4.2-1.9-4.2-4.2V6c0-2.3 1.9-4.2 4.2-4.2h125zm0-.8H6C3.2 1 1 3.3 1 6v30c0 2.8 2.2 5 5 5h125c2.8 0 5-2.2 5-5V6c0-2.7-2.2-5-5-5z"></path>
								<path fill="#FFF" d="M69.1 22.8c-2.4 0-4.3 1.8-4.3 4.3 0 2.4 1.9 4.3 4.3 4.3s4.3-1.8 4.3-4.3c0-2.6-1.9-4.3-4.3-4.3zm0 6.8c-1.3 0-2.4-1.1-2.4-2.6s1.1-2.6 2.4-2.6c1.3 0 2.4 1 2.4 2.6 0 1.5-1.1 2.6-2.4 2.6zm-9.3-6.8c-2.4 0-4.3 1.8-4.3 4.3 0 2.4 1.9 4.3 4.3 4.3s4.3-1.8 4.3-4.3c0-2.6-1.9-4.3-4.3-4.3zm0 6.8c-1.3 0-2.4-1.1-2.4-2.6s1.1-2.6 2.4-2.6c1.3 0 2.4 1 2.4 2.6 0 1.5-1.1 2.6-2.4 2.6zm-11.1-5.5v1.8H53c-.1 1-.5 1.8-1 2.3-.6.6-1.6 1.3-3.3 1.3-2.7 0-4.7-2.1-4.7-4.8 0-2.7 2.1-4.8 4.7-4.8 1.4 0 2.5.6 3.3 1.3l1.3-1.3c-1.1-1-2.5-1.8-4.5-1.8-3.6 0-6.7 3-6.7 6.6 0 3.6 3.1 6.6 6.7 6.6 2 0 3.4-.6 4.6-1.9 1.2-1.2 1.6-2.9 1.6-4.2 0-.4 0-.8-.1-1.1h-6.2zm45.4 1.4c-.4-1-1.4-2.7-3.6-2.7s-4 1.7-4 4.3c0 2.4 1.8 4.3 4.2 4.3 1.9 0 3.1-1.2 3.5-1.9l-1.4-1c-.5.7-1.1 1.2-2.1 1.2s-1.6-.4-2.1-1.3l5.7-2.4-.2-.5zm-5.8 1.4c0-1.6 1.3-2.5 2.2-2.5.7 0 1.4.4 1.6.9l-3.8 1.6zM83.6 31h1.9V18.5h-1.9V31zm-3-7.3c-.5-.5-1.3-1-2.3-1-2.1 0-4.1 1.9-4.1 4.3s1.9 4.2 4.1 4.2c1 0 1.8-.5 2.2-1h.1v.6c0 1.6-.9 2.5-2.3 2.5-1.1 0-1.9-.8-2.1-1.5l-1.6.7c.5 1.1 1.7 2.5 3.8 2.5 2.2 0 4-1.3 4-4.4V23h-1.8v.7zm-2.2 5.9c-1.3 0-2.4-1.1-2.4-2.6s1.1-2.6 2.4-2.6c1.3 0 2.3 1.1 2.3 2.6s-1 2.6-2.3 2.6zm24.4-11.1h-4.5V31h1.9v-4.7h2.6c2.1 0 4.1-1.5 4.1-3.9s-2-3.9-4.1-3.9zm.1 6h-2.7v-4.3h2.7c1.4 0 2.2 1.2 2.2 2.1-.1 1.1-.9 2.2-2.2 2.2zm11.5-1.8c-1.4 0-2.8.6-3.3 1.9l1.7.7c.4-.7 1-.9 1.7-.9 1 0 1.9.6 2 1.6v.1c-.3-.2-1.1-.5-1.9-.5-1.8 0-3.6 1-3.6 2.8 0 1.7 1.5 2.8 3.1 2.8 1.3 0 1.9-.6 2.4-1.2h.1v1h1.8v-4.8c-.2-2.2-1.9-3.5-4-3.5zm-.2 6.9c-.6 0-1.5-.3-1.5-1.1 0-1 1.1-1.3 2-1.3.8 0 1.2.2 1.7.4-.2 1.2-1.2 2-2.2 2zm10.5-6.6l-2.1 5.4h-.1l-2.2-5.4h-2l3.3 7.6-1.9 4.2h1.9l5.1-11.8h-2zm-16.8 8h1.9V18.5h-1.9V31z"></path>
								<path fill="#FFF" stroke="#FFF" stroke-width=".2" d="M76.6 14V8h.9l2.9 4.7V8h.8v6h-.8l-3.1-4.9V14h-.7zm-2-.8c-.6.6-1.3.9-2.2.9-.9 0-1.6-.3-2.2-.9-.6-.6-.9-1.3-.9-2.2 0-.9.3-1.6.9-2.2.6-.6 1.3-.9 2.2-.9.9 0 1.6.3 2.2.9.6.6.9 1.3.9 2.2 0 .9-.3 1.6-.9 2.2zm-3.8-.5c.4.4 1 .7 1.6.7.6 0 1.2-.2 1.6-.7.4-.4.7-1 .7-1.7s-.2-1.3-.7-1.7c-.4-.4-1-.7-1.6-.7-.6 0-1.2.2-1.6.7-.4.4-.7 1-.7 1.7s.2 1.3.7 1.7zM56.3 14h-.8V8.7h-1.7V8H58v.7h-1.7V14zm4.6 0V8h.8v6h-.8zm4.2 0h-.8V8.7h-1.7V8h4.1v.7H65V14h.1zM53 8.7h-2.7v1.9h2.5v.7h-2.5v1.9H53v.8h-3.5V8H53v.7zm-4.6 2.5c0 .8-.2 1.5-.7 2-.6.6-1.3.9-2.2.9-.9 0-1.6-.3-2.2-.9-.6-.6-.9-1.3-.9-2.2 0-.9.3-1.6.9-2.2.6-.6 1.3-.9 2.2-.9.4 0 .8.1 1.2.3.4.2.7.4.9.7l-.5.5c-.4-.5-.9-.7-1.6-.7-.6 0-1.2.2-1.6.7-.5.4-.7 1-.7 1.7s.2 1.3.7 1.7c.5.4 1 .7 1.6.7.7 0 1.2-.2 1.7-.7.3-.3.5-.7.5-1.2h-2.2v-.7h2.9v.3z"></path>
								<path fill="url(#a)" d="M.4.5C.1.8 0 1.3 0 1.9V24c0 .6.2 1.1.5 1.4l.1.1L13 13.1v-.2L.4.5z" transform="translate(11 8)"></path>
								<path fill="url(#b)" d="M17 17.3l-4.1-4.1V12.9L17 8.8l.1.1 4.9 2.8c1.4.8 1.4 2.1 0 2.9l-5 2.7z" transform="translate(11 8)"></path>
								<path fill="url(#c)" d="M17.1 17.2L12.9 13 .4 25.5c.5.5 1.2.5 2.1.1l14.6-8.4" transform="translate(11 8)"></path>
								<path fill="url(#d)" d="M17.1 8.8L2.5.5C1.6 0 .9.1.4.6L12.9 13l4.2-4.2z" transform="translate(11 8)"></path>
								<path fill="#000" d="M28 25.1l-14.5 8.2c-.8.5-1.5.4-2 0l-.1.1.1.1c.5.4 1.2.5 2 0L28 25.1z" opacity=".2"></path>
								<path fill="#000" d="M11.4 33.3c-.3-.3-.4-.8-.4-1.4v.1c0 .6.2 1.1.5 1.4v-.1h-.1zm21.6-11l-5 2.8.1.1 4.9-2.8c.7-.4 1-.9 1-1.4 0 .5-.4.9-1 1.3z" opacity=".12"></path>
								<path fill="#FFF" d="M13.5 8.6L33 19.7c.6.4 1 .8 1 1.3 0-.5-.3-1-1-1.4L13.5 8.5c-1.4-.8-2.5-.2-2.5 1.4v.1c0-1.5 1.1-2.2 2.5-1.4z" opacity=".25"></path>
							</g>
						</svg>